<svg width="1000" height="1000" viewBox="0 0 1000 1000" fill="none" xmlns="http://www.w3.org/2000/svg">
<path fill-rule="evenodd" clip-rule="evenodd" d="M587.665 109.07C622.459 74.2782 678.871 74.2782 713.665 109.07C748.459 143.864 748.459 200.276 713.665 235.07L501.537 447.197C440.633 365.574 447.249 249.488 521.386 175.352L587.665 109.07Z" fill="#4F9E91"/>
<path fill-rule="evenodd" clip-rule="evenodd" d="M890.911 587.672C925.71 622.463 925.71 678.877 890.911 713.668C856.136 748.462 799.715 748.462 764.921 713.668L552.793 501.544C634.416 440.64 750.502 447.254 824.639 521.39L890.911 587.672Z" fill="#EBE1C5"/>
<path fill-rule="evenodd" clip-rule="evenodd" d="M412.32 890.946C377.528 925.74 321.115 925.74 286.323 890.946C251.529 856.152 251.529 799.741 286.323 764.947L498.449 552.822C559.352 634.445 552.739 750.531 478.602 824.664L412.32 890.946Z" fill="#EBCC6E"/>
<path fill-rule="evenodd" clip-rule="evenodd" d="M109.066 412.336C74.2715 377.542 74.2715 321.131 109.066 286.337C143.86 251.543 200.271 251.543 235.065 286.337L447.193 498.464C365.57 559.368 249.482 552.752 175.348 478.618L109.066 412.336Z" fill="#ED834E"/>
<path fill-rule="evenodd" clip-rule="evenodd" d="M540.251 864.949C591.555 807.907 615.4 734.916 611.783 663.051L713.658 764.927C713.912 765.18 714.167 765.433 714.423 765.686V838.419C714.423 887.624 674.534 927.513 625.329 927.513C585.362 927.513 551.543 901.197 540.251 864.949Z" fill="#ED834E"/>
<path fill-rule="evenodd" clip-rule="evenodd" d="M135.048 540.261C192.088 591.568 265.079 615.413 336.944 611.795L235.071 713.671C234.815 713.924 234.562 714.179 234.311 714.433H161.579C112.373 714.435 72.4844 674.544 72.4844 625.339C72.4844 585.375 98.7995 551.554 135.048 540.261Z" fill="#4F9E91"/>
<path fill-rule="evenodd" clip-rule="evenodd" d="M864.936 459.744C807.901 408.438 734.91 384.593 663.045 388.208L764.918 286.335C765.174 286.082 765.425 285.826 765.678 285.57H838.413C887.626 285.57 927.515 325.461 927.515 374.667C927.515 414.633 901.19 448.452 864.936 459.744Z" fill="#EBCC6E"/>
<path fill-rule="evenodd" clip-rule="evenodd" d="M459.728 135.062C408.422 192.103 384.579 265.093 388.194 336.96L286.321 235.085C286.065 234.832 285.812 234.579 285.556 234.325V161.593C285.556 112.387 325.445 72.4961 374.651 72.4961C414.617 72.4961 448.436 98.8136 459.728 135.062Z" fill="#EBE1C5"/>
<path fill-rule="evenodd" clip-rule="evenodd" d="M374.662 0C285.422 0 213.078 72.3437 213.078 161.583V193.01C159.39 178.982 99.8901 193.002 57.8175 235.075C-5.28511 298.177 -5.28511 400.486 57.8175 463.589L80.0385 485.809C32.1568 513.854 0 565.84 0 625.337C0 714.577 72.344 786.92 161.584 786.92H193.008C178.981 840.608 193.001 900.108 235.074 942.178C298.176 1005.28 400.486 1005.28 463.588 942.178L529.867 875.899C588.337 817.43 615.645 739.598 611.791 663.045L713.67 764.92C776.772 828.022 879.084 828.022 942.189 764.92C1005.29 701.818 1005.29 599.509 942.189 536.409L919.976 514.19C967.838 486.145 1000 434.16 1000 374.663C1000 285.423 927.648 213.08 838.418 213.08H806.991C821.021 159.389 806.998 99.8897 764.926 57.8173C701.826 -5.28507 599.516 -5.28507 536.414 57.8173L470.132 124.099C411.663 182.568 384.355 260.397 388.208 336.95L286.332 235.075C286.077 234.822 285.823 234.568 285.568 234.315V161.583C285.568 112.378 325.457 72.4891 374.662 72.4891C414.629 72.4891 448.447 98.8041 459.74 135.052C463.087 131.332 466.552 127.679 470.132 124.099L514.19 80.0381C486.145 32.1567 434.159 0 374.662 0ZM765.686 285.569C765.432 285.822 765.182 286.078 764.926 286.331L663.053 388.204C734.92 384.588 807.909 408.431 864.944 459.74C901.197 448.448 927.522 414.627 927.522 374.663C927.522 325.457 887.634 285.569 838.418 285.569H765.686ZM234.311 714.431C234.565 714.175 234.818 713.92 235.074 713.666L336.947 611.791C265.082 615.409 192.093 591.563 135.053 540.26C98.8045 551.552 72.4869 585.371 72.4869 625.337C72.4869 674.542 112.378 714.431 161.584 714.431H234.311ZM625.34 1000C565.84 1000 513.854 967.841 485.809 919.959L529.867 875.899C533.45 872.319 536.912 868.666 540.26 864.945C551.552 901.193 585.371 927.511 625.34 927.511C674.545 927.511 714.434 887.622 714.434 838.417V765.685C735.314 786.291 760.41 800.06 786.924 806.987V838.417C786.924 927.656 714.58 1000 625.34 1000ZM713.67 109.073C678.875 74.2817 622.464 74.2817 587.67 109.073L521.388 175.355C447.254 249.491 440.638 365.577 501.542 447.199L713.67 235.072C748.464 200.278 748.464 143.868 713.67 109.073ZM890.918 713.664C925.717 678.87 925.717 622.459 890.918 587.665L824.644 521.383C750.51 447.25 634.421 440.633 552.798 501.537L764.926 713.664C799.72 748.458 856.144 748.458 890.918 713.664ZM412.329 890.922C377.535 925.716 321.124 925.716 286.33 890.922C251.538 856.127 251.538 799.717 286.33 764.923L498.458 552.795C559.362 634.418 552.745 750.506 478.611 824.64L412.329 890.922ZM109.074 286.331C74.2821 321.125 74.2821 377.536 109.074 412.33L175.356 478.611C249.492 552.745 365.578 559.362 447.201 498.458L235.074 286.331C200.279 251.539 143.868 251.539 109.074 286.331Z" fill="#3D3A2C"/>
</svg>
