<svg xmlns="http://www.w3.org/2000/svg" width="44" height="44" fill="none" class="card-type-icon" viewBox="0 0 44 44"><rect width="44" height="44" fill="#fff" rx="8"/><path fill="#2F4653" d="M17.37 12.034c3.777 0 7.554.013 11.331-.009 1.038-.006 2.075-.012 3.112-.025.089-.001.176.012.264.02.422.037.532.375.616.732.893 3.75.61 7.744-.976 11.27a18.258 18.258 0 0 1-1.509 2.68 18.136 18.136 0 0 1-1.471 1.92c-.4.452-.818.884-1.263 1.288-.837.76-1.725 1.453-2.76 1.93-.55.252-1.125.41-1.725.495-.597.084-1.197.083-1.796.07-3.312-.072-6.624-.016-9.936-.031-1.715-.008-3.43-.002-5.144 0-.179 0-.356-.015-.525-.07-.351-.115-.564-.424-.584-.834-.006-.116-.004-.233-.004-.35V13.228c0-.17.004-.34.037-.51.08-.41.404-.654.815-.679.143-.009.287-.005.43-.005H17.37z"/><path fill="url(#a)" d="M32.58 28.213c.206-.056.374-.174.53-.3.671-.538 1.17-1.218 1.595-1.959a19.901 19.901 0 0 0 2.613-8.763c.018-.315.02-.63.03-.944 0-.046-.011-.096.03-.147a.85.85 0 0 1 .33.184c1.186 1.055 1.387 3.06 1.259 4.54-.305 3.507-2.234 7.25-5.331 9.06a6.436 6.436 0 0 1-.216.122 9.657 9.657 0 0 1-1.487.63l-.289.097a6.467 6.467 0 0 0 1.666-.315c1.766-.583 3.174-1.898 4.15-3.455.241-.383.457-.78.667-1.179.013-.024.026-.05.059-.056.039 0 .055.032.068.062.49 1.138.364 2.305-.328 3.333-1.361 2.024-4.239 3.231-6.618 3.241-2.193.009-4.386.006-6.58.006-.068 0-.173.036-.192-.061-.02-.104.091-.092.155-.121 3.328-1.536 5.846-4.215 7.486-7.486 1.426-2.843 2.143-6.06 1.864-9.242a15.42 15.42 0 0 0-.568-3.012c-.018-.059-.042-.116-.053-.177-.04-.211.022-.264.238-.243a2.7 2.7 0 0 1 1.437.587c.802.633 1.109 1.781 1.294 2.746.346 1.807-.008 3.808-.428 5.576-.548 2.3-1.472 4.55-2.804 6.506-.142.208-.306.402-.46.602-.04.055-.078.111-.117.167z"/><path fill="url(#b)" d="M13.618 20.624c-.003-.283-.09-.569-.34-.729-.243-.154-.566-.151-.757.084-.016.02-.05.052-.04.08.01.028.07.021.096.034.043.022.06.065.06.112-.003.054-.003.572-.005 1.285l-1.877-.011a3.856 3.856 0 0 1 .114-1.268c.02-.082.08-.182.074-.268a.059.059 0 0 0-.011-.032c-.017-.02-.05-.017-.075-.01a1.054 1.054 0 0 0-.665.53c-.24.432-.26 1.045-.26 1.045-.012.396-.028 1.2.393 2.033 0 0 .295.584.717.728.083.029.105.01.113 0 .032-.042-.038-.115-.059-.147a1.287 1.287 0 0 1-.1-.188 2.087 2.087 0 0 1-.126-.42 5.89 5.89 0 0 1-.132-1.327h1.894v1.678c0 .111.045.218.147.27a.593.593 0 0 0 .2.052c.12.015.243.023.361 0a.38.38 0 0 0 .19-.087c.085-.078.086-.184.086-.29 0-.843.008-1.685.007-2.528 0-.209-.002-.418-.005-.627v.001z"/><path fill="url(#c)" d="M11.022 24.45c-.764-.225-1.062-1.038-1.226-1.743a4.8 4.8 0 0 1-.09-.462c-.06-.474-.058-.995.095-1.452-.117.026-.17.127-.237.209-.25.298-.269.647-.28.993a3.07 3.07 0 0 0 .333 1.517 2.486 2.486 0 0 0 .83.923 1.425 1.425 0 0 1-.726-.439 2.68 2.68 0 0 1-.213-.317c-.122-.211-.273-.475-.35-.828-.022-.099-.036-.2-.075-.204-.057-.005-.12.195-.134.239-.044.14-.055.269-.054.337.003.267.202.785.678 1.137 0 0 .415.307 1.127.33a.601.601 0 0 0 .33-.095c.062-.045.104-.114-.008-.146z"/><path fill="url(#d)" d="m9.802 20.79-.001.003.004-.001-.003-.003z"/><path fill="url(#e)" d="m9.803 20.788.002.002.01-.013-.012.01z"/><path fill="url(#f)" d="M23.398 20.53c.003-.097 0-.242-.035-.416-.003-.018-.008-.063-.03-.114a.336.336 0 0 0-.124-.153.254.254 0 0 0-.139-.042l-.103.002-.143.002c-.093.001-.186-.001-.279.002a.31.31 0 0 0-.22.095c-.07.074-.127.18-.22.406l-.036.091c-.035.077-.535 1.164-.724 1.479-.013.023-.044.073-.082.072-.039.001-.07-.049-.083-.072-.189-.315-.689-1.402-.724-1.479a4.677 4.677 0 0 0-.037-.091c-.092-.227-.149-.332-.219-.407a.309.309 0 0 0-.22-.094c-.093-.003-.186-.001-.279-.002l-.143-.002-.103-.002a.258.258 0 0 0-.139.042.335.335 0 0 0-.124.153c-.022.051-.027.096-.03.114a1.83 1.83 0 0 0-.035.417l-.11 3.356a.277.277 0 0 0 .016.073c.057.164.264.244.423.246.161.003.354-.074.422-.223 0-.001.013-.03.02-.062.047-.228.075-2.063.085-2.862.436.897.777 1.568.935 1.864.032.06.1.183.227.225a.377.377 0 0 0 .235 0c.126-.042.195-.164.227-.225.157-.296.499-.967.935-1.864.01.8.038 2.634.085 2.862.007.032.02.06.02.062.068.149.26.226.422.223.16-.002.366-.082.424-.246a.282.282 0 0 0 .015-.073l-.11-3.356z"/><path fill="#fff" d="M15.626 23.176a.18.18 0 0 1 .028.006v.002c-.008.012-.034.005-.028-.008z"/><path fill="url(#g)" d="M18.148 19.938c-.09-.116-.245-.12-.395-.124-.14-.004-.32-.009-.433.116a.358.358 0 0 0-.085.202l-.008 2.477a.881.881 0 0 1-.326.702s-.207.164-.478.186l-.056.003h-.042s-.029 0-.056-.003a.986.986 0 0 1-.478-.186.882.882 0 0 1-.327-.702l-.008-2.477a.354.354 0 0 0-.085-.202c-.112-.125-.292-.12-.433-.116-.149.004-.304.008-.395.123a.341.341 0 0 0-.06.25v2.593c0 .24.07.56.3.864.26.34.627.492.74.534a2.307 2.307 0 0 0 .823.127 2.307 2.307 0 0 0 .823-.127c.113-.042.48-.194.74-.534.23-.304.299-.623.299-.864v-2.593a.34.34 0 0 0-.06-.25z"/><path fill="#fff" d="M15.836 24.246a.09.09 0 0 1 .022.007l-.012.008-.01-.015z"/><path fill="url(#h)" d="M28.396 21.182a2.045 2.045 0 0 0-.726-1.044 2.372 2.372 0 0 0-1.368-.462 2.372 2.372 0 0 0-1.369.462 2.04 2.04 0 0 0-.726 1.044c-.356 1.195.18 2.72 1.463 3.057.207.054.42.077.632.071a2.24 2.24 0 0 0 .631-.071c1.283-.337 1.819-1.862 1.463-3.057zm-.953 1.334c-.134.566-.508 1.174-1.142 1.18-.634-.006-1.008-.614-1.142-1.18-.13-.545-.105-1.187.199-1.673a1.13 1.13 0 0 1 .943-.54c.374.003.732.203.943.54.304.486.328 1.128.198 1.673h.001z"/><defs><linearGradient id="a" x1="22.928" x2="39.411" y1="25.301" y2="20.26" gradientUnits="userSpaceOnUse"><stop offset=".33" stop-color="#9C8837"/><stop offset=".56" stop-color="#F7E59E"/><stop offset=".6" stop-color="#F0DE96"/><stop offset=".67" stop-color="#DECB80"/><stop offset=".75" stop-color="#C0AC5D"/><stop offset=".79" stop-color="#B39F4D"/></linearGradient><linearGradient id="b" x1="12.712" x2="9.67" y1="22.509" y2="20.215" gradientUnits="userSpaceOnUse"><stop offset=".33" stop-color="#9C8837"/><stop offset=".56" stop-color="#F7E59E"/><stop offset=".6" stop-color="#F0DE96"/><stop offset=".67" stop-color="#DECB80"/><stop offset=".75" stop-color="#C0AC5D"/><stop offset=".79" stop-color="#B39F4D"/></linearGradient><linearGradient id="c" x1="11.578" x2="8.536" y1="24.013" y2="21.72" gradientUnits="userSpaceOnUse"><stop offset=".33" stop-color="#9C8837"/><stop offset=".56" stop-color="#F7E59E"/><stop offset=".6" stop-color="#F0DE96"/><stop offset=".67" stop-color="#DECB80"/><stop offset=".75" stop-color="#C0AC5D"/><stop offset=".79" stop-color="#B39F4D"/></linearGradient><linearGradient id="d" x1="13.796" x2="9.255" y1="23.822" y2="20.395" gradientUnits="userSpaceOnUse"><stop offset=".33" stop-color="#9C8837"/><stop offset=".56" stop-color="#F7E59E"/><stop offset=".6" stop-color="#F0DE96"/><stop offset=".67" stop-color="#DECB80"/><stop offset=".75" stop-color="#C0AC5D"/><stop offset=".79" stop-color="#B39F4D"/></linearGradient><linearGradient id="e" x1="12.574" x2="9.427" y1="22.884" y2="20.51" gradientUnits="userSpaceOnUse"><stop offset=".33" stop-color="#9C8837"/><stop offset=".56" stop-color="#F7E59E"/><stop offset=".6" stop-color="#F0DE96"/><stop offset=".67" stop-color="#DECB80"/><stop offset=".75" stop-color="#C0AC5D"/><stop offset=".79" stop-color="#B39F4D"/></linearGradient><linearGradient id="f" x1="23.949" x2="19.227" y1="23.454" y2="20.959" gradientUnits="userSpaceOnUse"><stop offset=".33" stop-color="#9C8837"/><stop offset=".56" stop-color="#F7E59E"/><stop offset=".6" stop-color="#F0DE96"/><stop offset=".67" stop-color="#DECB80"/><stop offset=".75" stop-color="#C0AC5D"/><stop offset=".79" stop-color="#B39F4D"/></linearGradient><linearGradient id="g" x1="18.667" x2="13.943" y1="23.221" y2="20.274" gradientUnits="userSpaceOnUse"><stop offset=".33" stop-color="#9C8837"/><stop offset=".56" stop-color="#F7E59E"/><stop offset=".6" stop-color="#F0DE96"/><stop offset=".67" stop-color="#DECB80"/><stop offset=".75" stop-color="#C0AC5D"/><stop offset=".79" stop-color="#B39F4D"/></linearGradient><linearGradient id="h" x1="29.627" x2="23.754" y1="23.943" y2="20.547" gradientUnits="userSpaceOnUse"><stop offset=".33" stop-color="#9C8837"/><stop offset=".56" stop-color="#F7E59E"/><stop offset=".6" stop-color="#F0DE96"/><stop offset=".67" stop-color="#DECB80"/><stop offset=".75" stop-color="#C0AC5D"/><stop offset=".79" stop-color="#B39F4D"/></linearGradient></defs></svg>