<svg width="20" height="20" viewBox="0 0 20 20" fill="none" xmlns="http://www.w3.org/2000/svg">
<path opacity="0.4" d="M17.0833 11.25C17.0833 15.162 13.912 18.3333 10 18.3333C6.08799 18.3333 2.91667 15.162 2.91667 11.25C2.91667 7.33797 6.08799 4.16666 10 4.16666C13.912 4.16666 17.0833 7.33797 17.0833 11.25Z" fill="#428BFA" stroke="#428BFA" stroke-width="1.5"/>
<path fill-rule="evenodd" clip-rule="evenodd" d="M9.99996 2.29166C9.19135 2.29166 8.40998 2.40384 7.67006 2.61312C7.33791 2.70706 6.9925 2.51396 6.89855 2.18181C6.80461 1.84966 6.99771 1.50425 7.32986 1.4103C8.17938 1.17003 9.0752 1.04166 9.99996 1.04166C10.9247 1.04166 11.8205 1.17003 12.6701 1.4103C13.0022 1.50425 13.1953 1.84966 13.1014 2.18181C13.0074 2.51396 12.662 2.70706 12.3299 2.61312C11.5899 2.40384 10.8086 2.29166 9.99996 2.29166Z" fill="#428BFA"/>
<path d="M11.6667 11.6667C11.6667 12.5871 10.9205 13.3333 10 13.3333C9.07954 13.3333 8.33334 12.5871 8.33334 11.6667C8.33334 10.7462 9.07954 10 10 10C10.9205 10 11.6667 10.7462 11.6667 11.6667Z" fill="#428BFA"/>
<path fill-rule="evenodd" clip-rule="evenodd" d="M10 6.875C10.3452 6.875 10.625 7.15482 10.625 7.5V10.8333C10.625 11.1785 10.3452 11.4583 10 11.4583C9.65483 11.4583 9.37501 11.1785 9.37501 10.8333V7.5C9.37501 7.15482 9.65483 6.875 10 6.875Z" fill="#428BFA"/>
</svg>
