<svg xmlns="http://www.w3.org/2000/svg" width="44" height="45" fill="none" class="card-type-icon" viewBox="0 0 44 45"><rect width="44" height="44" fill="#fff" rx="8"/><path fill="#203E7A" fill-rule="evenodd" d="M33.234 19.295c0 4.07-.963 7.103-2.888 9.079-1.926 1.976-4.9 2.964-8.91 2.964-3.747 0-6.59-.988-8.528-2.964-1.939-1.976-2.909-4.956-2.908-8.94V6.068a.58.58 0 0 1 .588-.568h6.794a.58.58 0 0 1 .588.568v13.658c0 1.627.312 2.88.946 3.762 1.143 1.462 3.296 1.753 4.81.65.227-.165.433-.357.61-.572.62-.828.93-2.05.928-3.664v-2.557h7.97v1.95z" clip-rule="evenodd"/><path fill="#203E7A" fill-rule="evenodd" d="M32.62 15.851h-7.354V6.094a.607.607 0 0 1 .615-.594h1.101c.002 3.331 2.8 6.03 6.252 6.03h.001v4.321h-.616z" clip-rule="evenodd"/><path fill="#F4821F" fill-rule="evenodd" d="M28.547 5.5h4.071c.34.001.615.267.616.594v3.936c-2.589 0-4.687-2.026-4.687-4.525V5.5z" clip-rule="evenodd"/><path fill="#233C7E" fill-rule="evenodd" d="M11.335 37.836c.9 0 1.334-.483 1.334-1.193v-1.711h-.644v1.694a.68.68 0 0 1-.693.669.682.682 0 0 1-.693-.67v-1.693H10v1.716c0 .701.434 1.189 1.334 1.189v-.001h.001zm5.219-.051v-.535h-1.426l1.395-1.831v-.488h-2.22v.535H15.7l-1.396 1.826v.49l2.251.003zm3.007.05a1.37 1.37 0 0 0 1.236-.7l-.542-.253a.796.796 0 0 1-.695.414c-.537-.025-.95-.465-.923-.983a.954.954 0 0 1 .923-.89c.292.005.56.164.695.414l.542-.256a1.362 1.362 0 0 0-1.236-.698c-.844-.024-1.549.617-1.574 1.432-.025.815.638 1.495 1.483 1.52h.091zm5.497-.05-1.138-2.853h-.789l-1.143 2.853h.718l.186-.484h1.268l.181.484h.718zm-1.072-1.018h-.921l.46-1.228.461 1.228zm5.321 1.734-1.085-1.802c.4-.093.673-.45.648-.847.019-.49-.377-.902-.885-.921a.993.993 0 0 0-.108.002h-1.383v2.853h.63v-1.014h.46l1 1.728h.723zm-1.523-2.263h-.66v-.77h.658a.398.398 0 0 1 .44.344.391.391 0 0 1-.44.426h.002zm3.884 1.548c.927 0 1.57-.564 1.57-1.424s-.645-1.428-1.57-1.428h-1.165v2.852h1.165zm0-.534h-.536v-1.783h.536c.477-.035.891.31.927.77a.865.865 0 0 1 0 .123c.02.471-.359.87-.847.89a1.007 1.007 0 0 1-.081 0h.001zm2.333-2.376v.006a.541.541 0 0 1-.55.532.541.541 0 0 1-.55-.53.54.54 0 0 1 .55-.532H34v.524z" clip-rule="evenodd"/></svg>